<?xml version="1.0" encoding="utf-8"?>
<!-- Generator: Adobe Illustrator 26.0.3, SVG Export Plug-In . SVG Version: 6.00 Build 0)  -->
<svg version="1.0" id="katman_1" xmlns="http://www.w3.org/2000/svg" xmlns:xlink="http://www.w3.org/1999/xlink" x="0px" y="0px"
	 viewBox="0 0 600 450" style="enable-background:new 0 0 600 450;" xml:space="preserve">
<style type="text/css">
	.st0{fill:#FFFFFF;}
	.st1{fill:#7ABA4C;}
</style>
<path class="st0" d="M244.5,337.4c0.3,0,0.6,0.3,0.6,0.6c0,0,0,0,0,0v25c0,11.8-7.4,17.7-17.2,17.7s-17.2-5.8-17.2-17.7v-25
	c0-0.3,0.3-0.6,0.6-0.6l0,0h5.9c0.3,0,0.6,0.3,0.6,0.6v24.6c0,8.3,4.3,11.5,10.2,11.5c5.9,0,10.2-3.3,10.2-11.5V338
	c0-0.3,0.3-0.6,0.6-0.6l0,0H244.5z M346.2,358.6c0.1,12.2-9.7,22.1-21.9,22.2c-12.2,0.1-22.1-9.7-22.2-21.9s9.7-22.1,21.9-22.2
	c0,0,0.1,0,0.1,0c12-0.2,21.8,9.3,22,21.2C346.2,358.2,346.2,358.4,346.2,358.6z M309,358.6c0.2,8.3,7.1,14.9,15.4,14.8
	c8.3-0.2,14.9-7.1,14.8-15.4c-0.2-8.2-6.9-14.7-15-14.8c-8.2-0.1-15,6.4-15.1,14.6C309,358.1,309,358.4,309,358.6z M406.5,379.9h-6
	c-0.3,0-0.6-0.3-0.6-0.6c0-0.1,0-0.1,0-0.2l15.9-41.1c0.1-0.3,0.5-0.6,0.8-0.6h7.5c0.4,0,0.7,0.2,0.8,0.6l15.9,41.1
	c0.1,0.3,0,0.7-0.3,0.8c-0.1,0-0.1,0-0.2,0h-6c-0.2,0-0.5-0.2-0.5-0.4L421,345.7c-0.1-0.3-0.4-0.5-0.7-0.4c-0.2,0.1-0.3,0.2-0.4,0.4
	l-12.8,33.8C407,379.7,406.7,379.9,406.5,379.9z M165.8,379.9h-6c-0.3,0-0.6-0.3-0.6-0.6c0-0.1,0-0.1,0-0.2l15.9-41.1
	c0.1-0.3,0.5-0.6,0.8-0.6h7.5c0.4,0,0.7,0.2,0.8,0.6l15.9,41.1c0.1,0.3,0,0.7-0.3,0.8c-0.1,0-0.1,0-0.2,0h-6c-0.2,0-0.5-0.2-0.5-0.4
	l-12.8-33.8c-0.1-0.3-0.5-0.5-0.8-0.3c-0.2,0.1-0.3,0.2-0.3,0.3l-12.8,33.8C166.3,379.7,166.1,379.9,165.8,379.9z M388.8,378.9
	l-11.9-15.2c6.7-1.3,10.7-5.8,10.7-12.8c0-8-5.2-13.5-14.4-13.5h-16.6c-0.5,0-0.9,0.4-0.9,0.9v0c0,3.1,2.5,5.6,5.7,5.6h11.1
	c5.6,0,8.2,2.9,8.2,7c0,4.1-2.6,7-8.2,7h-15.9c-0.5,0-0.9,0.4-0.9,0.9v20.3c0,0.3,0.3,0.6,0.6,0.6c0,0,0,0,0,0h5.7
	c0.3,0,0.6-0.3,0.6-0.6v-15.1h6.5l10.4,13.5c1.1,1.5,2.9,2.3,4.7,2.3h4.3c0.3,0,0.6-0.2,0.7-0.5C389,379.2,388.9,379.1,388.8,378.9z
	 M292.5,378.9l-11.9-15.2c6.7-1.3,10.7-5.8,10.7-12.8c0-8-5.2-13.5-14.4-13.5h-16.6c-0.5,0-0.9,0.4-0.9,0.9v0c0,3.1,2.5,5.6,5.7,5.6
	h11.1c5.6,0,8.2,2.9,8.2,7c0,4.1-2.6,7-8.2,7h-15.9c-0.5,0-0.9,0.4-0.9,0.9v20.3c0,0.3,0.3,0.6,0.6,0.6c0,0,0,0,0,0h5.7
	c0.3,0,0.6-0.3,0.6-0.6v-15.1h6.6l10.3,13.5c1.1,1.5,2.9,2.3,4.7,2.3h4.3c0.3,0,0.6-0.3,0.6-0.6C292.7,379.2,292.6,379,292.5,378.9z
	"/>
<path class="st1" d="M300.1,87.1c9.5,0,18.2,5.3,22.4,13.8l70.4,140.8c6.2,12.4,1.2,27.4-11.2,33.6c-3.5,1.7-7.3,2.6-11.2,2.6H229.7
	c-13.8,0-25-11.2-25-25c0-3.9,0.9-7.7,2.6-11.2L277.7,101C281.9,92.5,290.6,87.1,300.1,87.1 M300.1,69.9c-16,0-30.6,9-37.8,23.3
	l-70.4,140.8c-10.4,20.9-2,46.2,18.9,56.7c5.9,2.9,12.3,4.5,18.9,4.5h140.8c23.3,0,42.3-18.9,42.3-42.2c0-6.6-1.5-13-4.5-18.9
	L337.9,93.3C330.7,79,316.1,69.9,300.1,69.9z"/>
</svg>
